<svg width="24" height="25" viewBox="0 0 24 25" fill="none" xmlns="http://www.w3.org/2000/svg">
    <path d="M17 11.5C17 10.9477 16.5523 10.5 16 10.5C15.4477 10.5 15 10.9477 15 11.5H17ZM9 11.5C9 10.9477 8.55228 10.5 8 10.5C7.44772 10.5 7 10.9477 7 11.5H9ZM15 11.5V16.5H17V11.5H15ZM14 17.5H10V19.5H14V17.5ZM9 16.5V11.5H7V16.5H9ZM10 17.5C9.44772 17.5 9 17.0523 9 16.5H7C7 18.1569 8.34315 19.5 10 19.5V17.5ZM15 16.5C15 17.0523 14.5523 17.5 14 17.5V19.5C15.6569 19.5 17 18.1569 17 16.5H15Z" fill="#969696"/>
    <rect x="7" y="6.5" width="10" height="2" rx="1" fill="#969696"/>
    <rect x="11" y="10.5" width="2" height="5" rx="1" fill="#969696"/>
    <rect x="11" y="5.5" width="2" height="3" rx="1" fill="#969696"/>
</svg>
